# xmcd
#
# Track frame offsets: 
#        187
#        13442
#        25035
#        38910
#        53517
#        67425
#        80802
#        95405
#        108115
#        118952
#
# Disc length: 1812 seconds
#
# Revision: 2
# Processed by: cddbd v1.4PL0 Copyright (c) Steve Scherf et al.
# Submitted via: ExactAudioCopy v0.90a11
#
DISCID=8807120a
DTITLE=Various Artist - Platinum Country
DYEAR=1900
DGENRE=
TTITLE0=Love's Got A Hold On You - Alan Jackson
TTITLE1=Take Your Memory With You - Vince Gill
TTITLE2=If Your Heart Ain't Busy Tonight- Tanya Tucker
TTITLE3=Some Girls Do - Sawyer Brown
TTITLE4=Norma Jean Riley - Diamond Rio
TTITLE5=My Next Broken Heart - Brooks and Dunn
TTITLE6=Don't Tell Me What To Do - Pam Tillis
TTITLE7=There Ain't Nothin' Wrong With The Radio - Aaron Tippin
TTITLE8=Old Flames With New Names - Mark Chestnut
TTITLE9=Could've Been Me - Billy Ray Cyrus
EXTD=
EXTT0=
EXTT1=
EXTT2=
EXTT3=
EXTT4=
EXTT5=
EXTT6=
EXTT7=
EXTT8=
EXTT9=
PLAYORDER=
